# xmcd
#
# Track frame offsets:
#	150
#	14527
#	28505
#	50156
#	69795
#	83178
#	95859
#	110007
#	124381
#	154811
#	170322
#	184704
#	202241
#
# Disc length: 2951 seconds
#
# Revision: 1
# Processed by: cddbd v1.5.2PL0 Copyright (c) Steve Scherf et al.
# Submitted via: audiograbber 1.83.01
#
DISCID=b80b850d
DTITLE=Jamila Woods - Legacy! Legacy!
DYEAR=2019
DGENRE=R&B
TTITLE0=Betty
TTITLE1=Zora
TTITLE2=Giovanni
TTITLE3=Sonia
TTITLE4=Frida
TTITLE5=Eartha
TTITLE6=Miles
TTITLE7=Muddy
TTITLE8=Basquiat
TTITLE9=Sun Ra
TTITLE10=Octavia
TTITLE11=Baldwin
TTITLE12=Betty (for Boogie)
EXTD=
EXTT0=
EXTT1=
EXTT2=
EXTT3=
EXTT4=
EXTT5=
EXTT6=
EXTT7=
EXTT8=
EXTT9=
EXTT10=
EXTT11=
EXTT12=
PLAYORDER=
